<svg xmlns="http://www.w3.org/2000/svg" version="1.1" xmlns:xlink="http://www.w3.org/1999/xlink" xmlns:svgjs="http://svgjs.dev/svgjs" width="1500" height="1500" viewBox="0 0 1500 1500"><rect width="1500" height="1500" fill="#000000"></rect><g transform="matrix(0.6666666666666666,0,0,0.6666666666666666,249.39436519522388,602.7029127395296)"><svg viewBox="0 0 396 117" data-background-color="#162836" preserveAspectRatio="xMidYMid meet" height="443" width="1500" xmlns="http://www.w3.org/2000/svg" xmlns:xlink="http://www.w3.org/1999/xlink"><g id="tight-bounds" transform="matrix(1,0,0,1,0.24008861730862918,-0.14641351193549212)"><svg viewBox="0 0 395.52 117.292827023871" height="117.292827023871" width="395.52"><g><svg viewBox="0 0 395.52 117.292827023871" height="117.292827023871" width="395.52"><g><svg viewBox="0 0 395.52 117.292827023871" height="117.292827023871" width="395.52"><g id="textblocktransform"><svg viewBox="0 0 395.52 117.292827023871" height="117.292827023871" width="395.52" id="textblock"><g><svg viewBox="0 0 395.52 94.40002625664188" height="94.40002625664188" width="395.52"><path d="M394.594 20.247C392.735 10.448 387.435 7.724 387.435 7.724 371.165-2.368 350.86-0.193 332.619 1.257 300.414 1.316 268.339 3.472 236.208 4.628 168.767 4.804 100.749 1.904 33.643 9.057 27.339 11.252-6.54 9.488 1.121 21.501 3.129 26.499 10.456 32.045 10.232 36.63 11.236 37.434 12.631 35.592 13.226 36.748 15.309 39.864 18.711 38.394 21.501 40.236 17.614 45.155 20.403 49.251 23.062 53.543 18.377 54.66 12.371 54.131 9.675 57.835 9.396 60.52 7.89 60.01 6.235 59.892 5.026 59.814 2.59 60.108 2.999 60.951 4.394 63.832-1.594 65.497 2.162 68.319-0.422 71.377 3.948 74.022 3.353 77.334 3.278 78 3.687 78.569 4.338 78.726 7.22 79.568 3.018 81.214 3.464 82.998 33.029 95.187 65.104 86.761 95.394 92.365 103.259 88.446 97.346 93.757 100.489 92.934 102.943 91.973 104.728 95.952 107.499 93.698 107.927 93.051 107.276 91.523 108.8 91.817 109.6 91.973 110.307 91.934 110.418 91.033 110.586 89.681 109.117 90.523 108.726 89.818 112.947 86.251 111.906 94.737 115.866 94.384 115.68 93.345 114.528 91.856 116.889 92.052 119.232 90.562 119.306 89.328 121.389 92.679 121.463 93.404 121.835 93.914 122.43 94.266 128.938 90.621 135.409 95.56 142.233 93.914 146.417 92.111 150.433 94.893 154.672 94.208 156.16 93.659 157.666 92.679 159.098 94.325 176.632 94.678 195.319 93.208 211.943 94.384 256.364 92.189 303.836 95.285 350.674 92.385 361.719 91.268 373.192 89.681 383.958 88.407 383.958 88.407 392.679 84.918 392.679 69.24S394.538 55.522 394.817 43.039C395.096 30.555 396.398 30.046 394.538 20.247Z" opacity="1" fill="#ffffff" data-fill-palette-color="tertiary"></path><g transform="matrix(1,0,0,1,55.76832,26.068561146666667)"><svg width="283.98335999999995" viewBox="-0.45 -42.25 316.11 47.050000000000004" height="42.262903963308545" data-palette-color="#162836"><path d="M27.4 4.8L27.4 4.8Q26.95 4.8 26.5 4.7L26.5 4.7Q24.1 4.25 24.1 0.45L24.1 0.45Q24.1-5.7 30.3-20.5L30.3-20.5Q32.7-26.1 33.85-31.4L33.85-31.4Q34.3-33.45 34.3-34.68 34.3-35.9 34.2-36.6L34.2-36.6Q33.95-38.8 32.55-39.65L32.55-39.65Q30.05-41 26.95-41L26.95-41Q23.7-41 20.1-39.4 16.5-37.8 13.33-35.5 10.15-33.2 7.55-30.03 4.95-26.85 3.68-23.38 2.4-19.9 2.4-17.1L2.4-17.1Q2.4-15.95 2.6-14.9L2.6-14.9Q3.4-11.45 5.6-9.75 7.8-8.05 10.8-8.05L10.8-8.05Q15-8.05 18.68-11.75 22.35-15.45 22.35-19.6L22.35-19.6Q22.35-21.85 21.45-22.85 20.55-23.85 19.6-23.85 18.65-23.85 17.7-23.58 16.75-23.3 16.75-23.63 16.75-23.95 17.9-24.48 19.05-25 20.3-25 21.55-25 22.6-24.25L22.6-24.25Q24.55-22.75 24.55-19.7 24.55-16.65 22.23-13.58 19.9-10.5 16.5-8.63 13.1-6.75 9.78-6.75 6.45-6.75 3.6-9.18 0.75-11.6-0.2-15.7L-0.2-15.7Q-0.45-16.9-0.45-18.25L-0.45-18.25Q-0.45-21.4 1.1-25.1 2.65-28.8 5.58-31.98 8.5-35.15 11.9-37.27 15.3-39.4 19.1-40.8L19.1-40.8Q22.9-42.25 26.25-42.25 29.6-42.25 32.35-41.2L32.35-41.2Q37.2-39.1 37.2-32.3L37.2-32.3Q37.2-27.3 33.6-19.9L33.6-19.9Q31.35-15.3 29.6-10L29.6-10Q27-2.15 27 0.9L27 0.9Q27 3.2 28.55 3.2L28.55 3.2Q31.65 3.2 39.4-4.85L39.4-4.85Q44.85-10.5 47.95-17.25L47.95-17.25Q49.95-21.55 49.95-25.15L49.95-25.15Q49.95-27.05 49.65-27.83 49.35-28.6 49.25-28.83 49.15-29.05 48.85-29.23 48.55-29.4 48.45-29.4L48.45-29.4Q47.75-29.6 47-29.73 46.25-29.85 46.13-30.4 46-30.95 46.65-31.05L46.65-31.05 47.6-30.95Q49.9-30.3 51.6-27.7L51.6-27.7Q52.55-26.25 52.55-24.23 52.55-22.2 51.6-19.45L51.6-19.45Q49.3-13.35 44.5-7.43 39.7-1.5 35.02 1.65 30.35 4.8 27.4 4.8ZM58.45-19.45Q57.75-18.85 56.9-18.85 56.05-18.85 55.55-19.45 55.05-20.05 55.15-20.9L55.15-20.9Q55.3-21.75 56-22.35 56.7-22.95 57.55-22.95 58.4-22.95 58.92-22.35 59.45-21.75 59.3-20.9 59.15-20.05 58.45-19.45ZM53.55-1.1L53.55-1.1Q54.5-1.1 55.55-2.05L55.55-2.05Q57.4-3.9 60.25-9.6L60.25-9.6Q60.6-10.35 60.95-10.05L60.95-10.05Q61.05-9.95 61.05-9.73 61.05-9.5 60.65-8.63 60.25-7.75 59.92-7.05 59.6-6.35 58.67-4.78 57.75-3.2 57-2.35L57-2.35Q54.95 0 53.12 0 51.3 0 50.5-1.1 49.7-2.2 49.7-3.55 49.7-4.9 50.35-6.5L50.35-6.5 53.55-14.65Q53.65-14.95 53.65-15.45 53.65-15.95 53.05-16.75L53.05-16.75 55.8-16.8Q56.95-16.8 57.15-16.38 57.35-15.95 56.85-15.05L56.85-15.05 52.85-5.7Q52-3.85 52-2.55L52-2.55Q52-1.1 53.55-1.1ZM70.85-2.9L70.85-2.9Q70.85-1.3 72.15-1.3L72.15-1.3Q74.5-1.3 78.4-9.15L78.4-9.15Q78.55-9.45 78.67-9.75 78.8-10.05 79.07-10.15 79.35-10.25 79.45-10.03 79.55-9.8 79.35-9.3L79.35-9.3Q75.35 0 71.25 0L71.25 0Q69.9 0 69.1-1.2 68.3-2.4 68.3-3.58 68.3-4.75 68.55-5.75L68.55-5.75Q65.65-0.95 63.55-0.3L63.55-0.3Q62.95-0.05 62.37-0.05 61.8-0.05 61.25-0.2L61.25-0.2Q58.8-0.85 58.8-4.1L58.8-4.1Q58.8-6.3 59.92-8.97 61.05-11.65 63.1-14.1 65.15-16.55 68.05-17.4L68.05-17.4Q69.1-17.75 70.52-17.75 71.95-17.75 73.7-16.85L73.7-16.85Q77.1-23.25 79.5-28.7L79.5-28.7Q80.2-30.35 80.87-30.83 81.55-31.3 82.12-31.3 82.7-31.3 82.82-31.3 82.95-31.3 83.77-31.18 84.6-31.05 85.05-31.1L85.05-31.1Q83.9-30.05 78.95-20.9L78.95-20.9Q72.65-9.2 71.35-5.3L71.35-5.3Q70.85-3.85 70.85-2.9ZM73.3-16.05L73.3-16.05Q72.65-16.7 71.47-16.7 70.3-16.7 68.2-14.95L68.2-14.95Q64.85-12.15 62.65-8.05L62.65-8.05Q61.2-5.35 61.2-3.6L61.2-3.6Q61.2-2.8 61.52-2.15 61.85-1.5 62.55-1.5L62.55-1.5Q64.25-1.5 66.75-5 69.25-8.5 73.3-16.05ZM87.54-2.25L87.54-2.25Q87.54-0.85 88.54-0.85L88.54-0.85Q90.89-0.85 95.19-9.65L95.19-9.65Q95.54-10.35 95.82-10.2 96.09-10.05 96.09-9.8 96.09-9.55 95.52-8.38 94.94-7.2 94.37-6.13 93.79-5.05 92.69-3.3L92.69-3.3Q90.39 0.2 87.79 0.2L87.79 0.2Q86.09 0.2 85.09-1.2L85.09-1.2Q84.64-1.85 84.64-2.98 84.64-4.1 85.14-5.7 85.64-7.3 87.89-10.9L87.89-10.9Q88.44-11.8 88.44-12.33 88.44-12.85 87.59-12.85 86.74-12.85 84.34-10.6L84.34-10.6Q80.74-7.3 77.34-0.7L77.34-0.7Q76.99 0.05 75.49 0.05L75.49 0.05Q74.14 0.15 73.79 0.35L73.79 0.35Q83.29-19.4 87.54-27.2L87.54-27.2Q88.49-28.95 89.22-29.65 89.94-30.35 90.94-30.35L90.94-30.35Q91.19-30.35 91.99-30.23 92.79-30.1 93.19-30.15L93.19-30.15Q91.69-28.6 87.82-21.58 83.94-14.55 80.39-7.3L80.39-7.3Q82.74-10.25 84.62-11.9 86.49-13.55 89.19-15.03 91.89-16.5 93.14-16.5L93.14-16.5Q93.44-16.5 93.69-16.4L93.69-16.4Q87.54-5.6 87.54-2.25ZM93.49-2.9L93.49-2.9Q93.49-5.05 95.34-8.1L95.34-8.1Q94.54-8.1 94.89-8.9L94.89-8.9 95.79-10.65Q97.49-13.9 98.59-16.15L98.59-16.15Q99.09-17.2 100.54-17.2L100.54-17.2 103.59-17.2Q101.79-15.9 99.97-12.18 98.14-8.45 97.14-6.33 96.14-4.2 96.14-3.1 96.14-2 96.52-1.55 96.89-1.1 97.54-1.1L97.54-1.1Q98.49-1.1 100.19-3.1L100.19-3.1Q102.84-6.2 107.64-16.15L107.64-16.15Q108.19-17.2 109.59-17.2L109.59-17.2 112.29-17.2Q111.19-16.35 110.57-15.45 109.94-14.55 108.84-12.25L108.84-12.25Q105.84-6.25 105.49-4.3L105.49-4.3Q105.34-3.6 105.34-3L105.34-3Q105.34-1.4 106.44-1.3L106.44-1.3Q109.14-1.3 113.09-9.65L113.09-9.65Q113.39-10.35 113.69-10.2 113.99-10.05 113.99-9.8 113.99-9.55 113.54-8.65 113.09-7.75 112.67-6.9 112.24-6.05 111.37-4.58 110.49-3.1 109.74-2.25L109.74-2.25Q107.79-0.05 105.92-0.05 104.04-0.05 103.34-1.7L103.34-1.7Q103.04-2.45 103.04-3.6 103.04-4.75 103.54-6.45L103.54-6.45Q99.89-0.05 96.79-0.05L96.79-0.05Q94.09-0.05 93.64-2.3L93.64-2.3Q93.49-2.55 93.49-2.9ZM128.19-16.4L128.19-16.4Q122.04-5.6 122.04-2.3L122.04-2.3Q122.04-1 122.99-1L122.99-1Q125.54-1 129.84-9.65L129.84-9.65Q130.14-10.35 130.44-10.2 130.74-10.05 130.74-9.8 130.74-9.55 130.54-9.2L130.54-9.2Q127.89-3.85 126.06-1.83 124.24 0.2 122.41 0.2 120.59 0.2 119.64-1.2L119.64-1.2Q119.14-1.85 119.14-2.98 119.14-4.1 119.64-5.7 120.14-7.3 122.39-10.9L122.39-10.9Q122.94-11.8 122.94-12.33 122.94-12.85 122.09-12.85 121.24-12.85 118.84-10.6L118.84-10.6Q115.24-7.3 111.89-0.7L111.89-0.7Q111.59-0.2 111.21-0.08 110.84 0.05 109.74 0.1 108.64 0.15 108.29 0.35L108.29 0.35Q109.09-1.25 111.44-6.2L111.44-6.2Q115.64-14.95 116.94-16.2L116.94-16.2Q117.54-16.8 118.59-16.8L118.59-16.8Q118.79-16.8 119.61-16.65 120.44-16.5 120.84-16.6L120.84-16.6Q118.99-15.6 114.79-7.2L114.79-7.2Q117.14-10.1 119.06-11.83 120.99-13.55 123.69-15.03 126.39-16.5 127.64-16.5L127.64-16.5Q127.94-16.5 128.19-16.4ZM167.33 4.8L167.33 4.8Q166.88 4.8 166.43 4.7L166.43 4.7Q164.03 4.25 164.03 0.45L164.03 0.45Q164.03-5.7 170.23-20.5L170.23-20.5Q172.63-26.1 173.78-31.4L173.78-31.4Q174.23-33.45 174.23-34.68 174.23-35.9 174.13-36.6L174.13-36.6Q173.88-38.8 172.48-39.65L172.48-39.65Q169.98-41 166.88-41L166.88-41Q163.63-41 160.03-39.4 156.43-37.8 153.26-35.5 150.08-33.2 147.48-30.03 144.88-26.85 143.61-23.38 142.33-19.9 142.33-17.1L142.33-17.1Q142.33-15.95 142.53-14.9L142.53-14.9Q143.33-11.45 145.53-9.75 147.73-8.05 150.73-8.05L150.73-8.05Q154.93-8.05 158.61-11.75 162.28-15.45 162.28-19.6L162.28-19.6Q162.28-21.85 161.38-22.85 160.48-23.85 159.53-23.85 158.58-23.85 157.63-23.58 156.68-23.3 156.68-23.63 156.68-23.95 157.83-24.48 158.98-25 160.23-25 161.48-25 162.53-24.25L162.53-24.25Q164.48-22.75 164.48-19.7 164.48-16.65 162.16-13.58 159.83-10.5 156.43-8.63 153.03-6.75 149.71-6.75 146.38-6.75 143.53-9.18 140.68-11.6 139.73-15.7L139.73-15.7Q139.48-16.9 139.48-18.25L139.48-18.25Q139.48-21.4 141.03-25.1 142.58-28.8 145.51-31.98 148.43-35.15 151.83-37.27 155.23-39.4 159.03-40.8L159.03-40.8Q162.83-42.25 166.18-42.25 169.53-42.25 172.28-41.2L172.28-41.2Q177.13-39.1 177.13-32.3L177.13-32.3Q177.13-27.3 173.53-19.9L173.53-19.9Q171.28-15.3 169.53-10L169.53-10Q166.93-2.15 166.93 0.9L166.93 0.9Q166.93 3.2 168.48 3.2L168.48 3.2Q171.58 3.2 179.33-4.85L179.33-4.85Q184.78-10.5 187.88-17.25L187.88-17.25Q189.88-21.55 189.88-25.15L189.88-25.15Q189.88-27.05 189.58-27.83 189.28-28.6 189.18-28.83 189.08-29.05 188.78-29.23 188.48-29.4 188.38-29.4L188.38-29.4Q187.68-29.6 186.93-29.73 186.18-29.85 186.06-30.4 185.93-30.95 186.58-31.05L186.58-31.05 187.53-30.95Q189.83-30.3 191.53-27.7L191.53-27.7Q192.48-26.25 192.48-24.23 192.48-22.2 191.53-19.45L191.53-19.45Q189.23-13.35 184.43-7.43 179.63-1.5 174.96 1.65 170.28 4.8 167.33 4.8ZM193.73-7.7L193.73-7.7Q193.03-6 193.03-3.9L193.03-3.9Q193.03-2.5 193.66-1.68 194.28-0.85 195.43-0.85L195.43-0.85Q199.98-0.85 203.68-9.4L203.68-9.4Q204.03-10.2 204.53-10.1L204.53-10.1Q204.73-10.05 204.73-9.85 204.73-9.65 203.61-7.23 202.48-4.8 201.33-3.3L201.33-3.3Q198.78 0.2 195.03 0.2L195.03 0.2Q193.03 0.2 191.63-1.1 190.23-2.4 190.23-4.65 190.23-6.9 191.31-9.43 192.38-11.95 194.23-14.13 196.08-16.3 198.48-17.3L198.48-17.3Q199.63-17.8 200.68-17.8 201.73-17.8 202.63-17.2L202.63-17.2Q203.48-16.5 203.48-15.65L203.48-15.65Q203.48-12.65 199.88-9.9L199.88-9.9Q198.78-9.05 196.78-8.38 194.78-7.7 193.73-7.7ZM202.13-15.7L202.13-15.7Q202.13-16.7 201.33-16.7L201.33-16.7Q199.93-16.7 197.08-13.25L197.08-13.25Q195.38-11.15 194.08-8.55L194.08-8.55Q194.93-8.55 196.56-9.15 198.18-9.75 199.38-10.75L199.38-10.75Q202.13-13.1 202.13-15.7ZM206.03-7.7L206.03-7.7Q205.33-6 205.33-3.9L205.33-3.9Q205.33-2.5 205.95-1.68 206.58-0.85 207.73-0.85L207.73-0.85Q212.28-0.85 215.98-9.4L215.98-9.4Q216.33-10.2 216.83-10.1L216.83-10.1Q217.03-10.05 217.03-9.85 217.03-9.65 215.9-7.23 214.78-4.8 213.63-3.3L213.63-3.3Q211.08 0.2 207.33 0.2L207.33 0.2Q205.33 0.2 203.93-1.1 202.53-2.4 202.53-4.65 202.53-6.9 203.6-9.43 204.68-11.95 206.53-14.13 208.38-16.3 210.78-17.3L210.78-17.3Q211.93-17.8 212.98-17.8 214.03-17.8 214.93-17.2L214.93-17.2Q215.78-16.5 215.78-15.65L215.78-15.65Q215.78-12.65 212.18-9.9L212.18-9.9Q211.08-9.05 209.08-8.38 207.08-7.7 206.03-7.7ZM214.43-15.7L214.43-15.7Q214.43-16.7 213.63-16.7L213.63-16.7Q212.23-16.7 209.38-13.25L209.38-13.25Q207.68-11.15 206.38-8.55L206.38-8.55Q207.23-8.55 208.85-9.15 210.48-9.75 211.68-10.75L211.68-10.75Q214.43-13.1 214.43-15.7ZM222.83-20.05L222.83-20.05Q222.83-17.8 219.98-15.8L219.98-15.8Q220.98-15.75 222.65-15.75 224.33-15.75 226.88-16L226.88-16Q226.98-15.85 226.98-15.2 226.98-14.55 226.38-13.28 225.78-12 225.3-11.08 224.83-10.15 224.4-9.33 223.98-8.5 223.45-7.3 222.93-6.1 222.58-5.1L222.58-5.1Q221.33-1.3 222.98-1.3L222.98-1.3Q225.08-1.3 229.18-9.65L229.18-9.65Q229.53-10.3 229.75-10.15 229.98-10 229.98-9.78 229.98-9.55 229.33-8.22 228.68-6.9 227.93-5.5 227.18-4.1 225.58-2.25L225.58-2.25Q223.68 0.05 221.93 0.05L221.93 0.05Q219.98 0.05 219.23-2.3L219.23-2.3Q219.08-2.75 219.08-3.65 219.08-4.55 219.65-6.05 220.23-7.55 221.48-9.7 222.73-11.85 222.88-12.23 223.03-12.6 223.03-12.95L223.03-12.95Q223.03-14.5 219.03-14.6L219.03-14.6 218.43-13Q215.28-4.75 212.38-1.95L212.38-1.95Q211.88-1.5 211.88-2.25L211.88-2.25Q211.88-2.4 211.98-2.6L211.98-2.6Q214.78-6.3 216.83-11.35 218.88-16.4 219.68-20.95L219.68-20.95Q219.98-22.5 221.08-22.5 222.18-22.5 222.68-21.1L222.68-21.1Q222.83-20.65 222.83-20.05ZM244.32-13.55Q243.42-12.65 241.77-9.47 240.12-6.3 239.8-4.73 239.47-3.15 239.47-2.18 239.47-1.2 240.22-1.2L240.22-1.2Q241.17-1.2 242.57-2.95L242.57-2.95Q244.62-5.5 246.62-9.6L246.62-9.6Q246.82-10.05 247.07-10.1L247.07-10.1Q247.47-10.25 247.47-9.8L247.47-9.8Q247.47-9.55 247.32-9.2L247.32-9.2Q242.72 0.1 239.57 0.1L239.57 0.1Q238.12 0.1 237.22-1.3L237.22-1.3Q236.77-2.05 236.77-3.3 236.77-4.55 237.27-6.35L237.27-6.35Q233.27 0.1 230.37 0.1L230.37 0.1Q229.57 0.1 228.92-0.4L228.92-0.4Q227.42-1.45 227.42-4L227.42-4Q227.42-8.9 231.67-13.95L231.67-13.95Q234.07-16.75 237.57-17.6L237.57-17.6Q238.52-17.85 239.37-17.85L239.37-17.85Q241.67-17.85 243.27-16.25L243.27-16.25Q243.77-15.7 243.57-15.2 243.37-14.7 242.72-14.8L242.72-14.8Q242.17-16.6 240.32-16.6L240.32-16.6Q238.17-16.6 235.02-13.2L235.02-13.2Q233.22-11.2 231.67-8.5L231.67-8.5Q229.72-5.25 229.72-3.3 229.72-1.35 230.97-1.35L230.97-1.35Q233.97-1.35 238.82-10.55L238.82-10.55Q239.77-12.4 240.42-13.08 241.07-13.75 242.07-13.75L242.07-13.75Q242.27-13.75 243.1-13.6 243.92-13.45 244.32-13.55L244.32-13.55ZM270.27-16.4L270.27-16.4Q264.17-5.55 264.17-2.4L264.17-2.4Q264.17-1 265.12-1L265.12-1Q266.32-1 267.87-2.8L267.87-2.8Q270.22-5.65 271.97-9.65L271.97-9.65Q272.27-10.35 272.57-10.2 272.87-10.05 272.87-9.8 272.87-9.55 272.37-8.55 271.87-7.55 271.57-6.95 271.27-6.35 270.25-4.65 269.22-2.95 268.5-2.15 267.77-1.35 266.65-0.58 265.52 0.2 264.1 0.2 262.67 0.2 261.67-1.2L261.67-1.2Q261.22-1.85 261.22-2.98 261.22-4.1 261.72-5.7 262.22-7.3 264.47-10.9L264.47-10.9Q265.02-11.8 265.02-12.33 265.02-12.85 264.2-12.85 263.37-12.85 261.22-10.85 259.07-8.85 256.7-5.45 254.32-2.05 253.87 0L253.87 0Q253.02 0 252.62-0.7 252.22-1.4 252.22-1.9L252.22-1.9Q252.22-3.95 254.97-9.7L254.97-9.7Q255.87-11.6 255.92-12.28 255.97-12.95 255.75-12.98 255.52-13 255.12-12.8L255.12-12.8Q254.22-12.35 252.37-10.6L252.37-10.6Q248.87-7.4 245.47-0.85L245.47-0.85Q245.22-0.3 244.85-0.18 244.47-0.05 243.37 0 242.27 0.05 241.92 0.25L241.92 0.25Q242.82-1.5 245.07-6.3L245.07-6.3Q249.12-14.9 250.47-16.2L250.47-16.2Q251.07-16.8 252.12-16.8L252.12-16.8Q252.32-16.8 253.15-16.65 253.97-16.5 254.37-16.6L254.37-16.6Q252.52-15.6 248.32-7.2L248.32-7.2Q250.67-10.1 251.7-11 252.72-11.9 253.22-12.35 253.72-12.8 254-13.05 254.27-13.3 254.8-13.78 255.32-14.25 255.6-14.48 255.87-14.7 256.37-15.1 256.87-15.5 257.15-15.63 257.42-15.75 257.9-16.05 258.37-16.35 258.6-16.35 258.82-16.35 259.22-16.48 259.62-16.6 259.77-16.4L259.77-16.4Q260.77-16 260.77-15.15L260.77-15.15Q260.77-14.4 259.07-11.3 257.37-8.2 256.87-7.2L256.87-7.2Q259.07-9.95 261.07-11.73 263.07-13.5 265.8-15 268.52-16.5 269.77-16.5L269.77-16.5Q270.07-16.5 270.27-16.4ZM287.17-13.55Q286.27-12.65 284.62-9.47 282.97-6.3 282.64-4.73 282.32-3.15 282.32-2.18 282.32-1.2 283.07-1.2L283.07-1.2Q284.02-1.2 285.42-2.95L285.42-2.95Q287.47-5.5 289.47-9.6L289.47-9.6Q289.67-10.05 289.92-10.1L289.92-10.1Q290.32-10.25 290.32-9.8L290.32-9.8Q290.32-9.55 290.17-9.2L290.17-9.2Q285.57 0.1 282.42 0.1L282.42 0.1Q280.97 0.1 280.07-1.3L280.07-1.3Q279.62-2.05 279.62-3.3 279.62-4.55 280.12-6.35L280.12-6.35Q276.12 0.1 273.22 0.1L273.22 0.1Q272.42 0.1 271.77-0.4L271.77-0.4Q270.27-1.45 270.27-4L270.27-4Q270.27-8.9 274.52-13.95L274.52-13.95Q276.92-16.75 280.42-17.6L280.42-17.6Q281.37-17.85 282.22-17.85L282.22-17.85Q284.52-17.85 286.12-16.25L286.12-16.25Q286.62-15.7 286.42-15.2 286.22-14.7 285.57-14.8L285.57-14.8Q285.02-16.6 283.17-16.6L283.17-16.6Q281.02-16.6 277.87-13.2L277.87-13.2Q276.07-11.2 274.52-8.5L274.52-8.5Q272.57-5.25 272.57-3.3 272.57-1.35 273.82-1.35L273.82-1.35Q276.82-1.35 281.67-10.55L281.67-10.55Q282.62-12.4 283.27-13.08 283.92-13.75 284.92-13.75L284.92-13.75Q285.12-13.75 285.94-13.6 286.77-13.45 287.17-13.55L287.17-13.55ZM304.57-16.4L304.57-16.4Q298.42-5.6 298.42-2.3L298.42-2.3Q298.42-1 299.37-1L299.37-1Q301.92-1 306.22-9.65L306.22-9.65Q306.52-10.35 306.82-10.2 307.12-10.05 307.12-9.8 307.12-9.55 306.92-9.2L306.92-9.2Q304.27-3.85 302.44-1.83 300.62 0.2 298.79 0.2 296.97 0.2 296.02-1.2L296.02-1.2Q295.52-1.85 295.52-2.98 295.52-4.1 296.02-5.7 296.52-7.3 298.77-10.9L298.77-10.9Q299.32-11.8 299.32-12.33 299.32-12.85 298.47-12.85 297.62-12.85 295.22-10.6L295.22-10.6Q291.62-7.3 288.27-0.7L288.27-0.7Q287.97-0.2 287.59-0.08 287.22 0.05 286.12 0.1 285.02 0.15 284.67 0.35L284.67 0.35Q285.47-1.25 287.82-6.2L287.82-6.2Q292.02-14.95 293.32-16.2L293.32-16.2Q293.92-16.8 294.97-16.8L294.97-16.8Q295.17-16.8 295.99-16.65 296.82-16.5 297.22-16.6L297.22-16.6Q295.37-15.6 291.17-7.2L291.17-7.2Q293.52-10.1 295.44-11.83 297.37-13.55 300.07-15.03 302.77-16.5 304.02-16.5L304.02-16.5Q304.32-16.5 304.57-16.4ZM313.06-19.45Q312.36-18.85 311.51-18.85 310.66-18.85 310.16-19.45 309.66-20.05 309.76-20.9L309.76-20.9Q309.91-21.75 310.61-22.35 311.31-22.95 312.16-22.95 313.01-22.95 313.54-22.35 314.06-21.75 313.91-20.9 313.76-20.05 313.06-19.45ZM308.16-1.1L308.16-1.1Q309.11-1.1 310.16-2.05L310.16-2.05Q312.01-3.9 314.86-9.6L314.86-9.6Q315.21-10.35 315.56-10.05L315.56-10.05Q315.66-9.95 315.66-9.73 315.66-9.5 315.26-8.63 314.86-7.75 314.54-7.05 314.21-6.35 313.29-4.78 312.36-3.2 311.61-2.35L311.61-2.35Q309.56 0 307.74 0 305.91 0 305.11-1.1 304.31-2.2 304.31-3.55 304.31-4.9 304.96-6.5L304.96-6.5 308.16-14.65Q308.26-14.95 308.26-15.45 308.26-15.95 307.66-16.75L307.66-16.75 310.41-16.8Q311.56-16.8 311.76-16.38 311.96-15.95 311.46-15.05L311.46-15.05 307.46-5.7Q306.61-3.85 306.61-2.55L306.61-2.55Q306.61-1.1 308.16-1.1Z" opacity="1" transform="matrix(1,0,0,1,0,0)" fill="#000000" class="wordmark-text-0" data-fill-palette-color="quaternary" id="text-0"></path></svg></g></svg></g><g transform="matrix(1,0,0,1,133.97919925488247,104.37728357268391)"><svg viewBox="0 0 127.56160149023506 12.91554345118709" height="12.91554345118709" width="127.56160149023506"><g transform="matrix(1,0,0,1,0,0)"><svg width="127.56160149023506" viewBox="1.9 -37 464.16 47" height="12.91554345118709" data-palette-color="#cf7650"><path d="M14.6 0.5L14.6 0.5Q10.9 0.5 8.1-0.6 5.3-1.7 2.7-4.1L2.7-4.1Q2.35-4.45 2.13-4.88 1.9-5.3 1.9-5.8L1.9-5.8Q1.9-6.6 2.48-7.23 3.05-7.85 3.9-7.85L3.9-7.85Q4.6-7.85 5.15-7.3L5.15-7.3Q7.1-5.4 9.38-4.4 11.65-3.4 14.5-3.4L14.5-3.4Q16.7-3.4 18.48-4.1 20.25-4.8 21.3-6.05 22.35-7.3 22.35-8.95L22.35-8.95Q22.3-10.95 21.18-12.25 20.05-13.55 18.07-14.43 16.1-15.3 13.5-15.9L13.5-15.9Q11.2-16.45 9.28-17.25 7.35-18.05 5.95-19.23 4.55-20.4 3.78-22.08 3-23.75 3-26L3-26Q3-28.85 4.5-31 6-33.15 8.65-34.33 11.3-35.5 14.75-35.5L14.75-35.5Q17.8-35.5 20.53-34.5 23.25-33.5 24.9-31.75L24.9-31.75Q25.9-30.8 25.9-29.9L25.9-29.9Q25.9-29.15 25.28-28.53 24.65-27.9 23.85-27.9L23.85-27.9Q23.3-27.9 22.85-28.3L22.85-28.3Q22-29.25 20.7-30 19.4-30.75 17.85-31.2 16.3-31.65 14.75-31.65L14.75-31.65Q12.45-31.65 10.7-30.98 8.95-30.3 7.98-29.08 7-27.85 7-26.15L7-26.15Q7-24.25 8.1-23.03 9.2-21.8 11.05-21.03 12.9-20.25 15.15-19.65L15.15-19.65Q17.6-19.05 19.68-18.28 21.75-17.5 23.25-16.35 24.75-15.2 25.58-13.43 26.4-11.65 26.4-9.05L26.4-9.05Q26.4-6.3 24.85-4.15 23.3-2 20.63-0.78 17.95 0.45 14.6 0.5ZM56.7-13L56.7-13Q56.7-9.1 55-6.05 53.3-3 50.37-1.25 47.45 0.5 43.75 0.5L43.75 0.5Q40.1 0.5 37.17-1.25 34.25-3 32.52-6.05 30.8-9.1 30.8-13L30.8-13Q30.8-16.9 32.52-19.95 34.25-23 37.17-24.75 40.1-26.5 43.75-26.5L43.75-26.5Q47.45-26.5 50.37-24.75 53.3-23 55-19.95 56.7-16.9 56.7-13ZM52.7-13L52.7-13Q52.7-15.9 51.52-18.1 50.35-20.3 48.32-21.55 46.3-22.8 43.75-22.8L43.75-22.8Q41.25-22.8 39.2-21.55 37.15-20.3 35.97-18.1 34.8-15.9 34.8-13L34.8-13Q34.8-10.15 35.97-7.95 37.15-5.75 39.2-4.48 41.25-3.2 43.75-3.2L43.75-3.2Q46.3-3.2 48.32-4.48 50.35-5.75 51.52-7.95 52.7-10.15 52.7-13ZM73.3-36.9L73.3-36.9Q74.15-36.9 75.07-36.7 76-36.5 76.67-36 77.34-35.5 77.34-34.65L77.34-34.65Q77.34-33.85 76.84-33.33 76.34-32.8 75.65-32.8L75.65-32.8Q75.2-32.8 74.4-33.08 73.59-33.35 72.75-33.35L72.75-33.35Q71.59-33.35 70.87-32.85 70.15-32.35 69.82-31.53 69.5-30.7 69.5-29.7L69.5-29.7 69.5-2.05Q69.5-1.2 68.92-0.6 68.34 0 67.5 0L67.5 0Q66.59 0 66.05-0.6 65.5-1.2 65.5-2.05L65.5-2.05 65.5-29.65Q65.5-33 67.57-34.95 69.65-36.9 73.3-36.9ZM62.15-25.45L74.7-25.45Q75.5-25.45 76.05-24.93 76.59-24.4 76.59-23.6L76.59-23.6Q76.59-22.8 76.05-22.28 75.5-21.75 74.7-21.75L74.7-21.75 62.15-21.75Q61.34-21.75 60.8-22.3 60.25-22.85 60.25-23.6L60.25-23.6Q60.25-24.45 60.8-24.95 61.34-25.45 62.15-25.45L62.15-25.45ZM80.39-25.7L80.39-25.7 92.14-25.7Q92.94-25.7 93.47-25.15 93.99-24.6 93.99-23.85L93.99-23.85Q93.99-23.05 93.47-22.53 92.94-22 92.14-22L92.14-22 80.39-22Q79.64-22 79.09-22.55 78.54-23.1 78.54-23.9L78.54-23.9Q78.54-24.65 79.09-25.18 79.64-25.7 80.39-25.7ZM85.64-32.5L85.64-32.5Q86.49-32.5 87.04-31.93 87.59-31.35 87.59-30.5L87.59-30.5 87.59-6.35Q87.59-5.15 87.94-4.55 88.29-3.95 88.87-3.73 89.44-3.5 89.99-3.5L89.99-3.5Q90.49-3.5 90.87-3.68 91.24-3.85 91.74-3.85L91.74-3.85Q92.24-3.85 92.67-3.38 93.09-2.9 93.09-2.15L93.09-2.15Q93.09-1.25 92.04-0.63 90.99 0 89.69 0L89.69 0Q88.99 0 87.97-0.1 86.94-0.2 85.94-0.75 84.94-1.3 84.27-2.58 83.59-3.85 83.59-6.15L83.59-6.15 83.59-30.5Q83.59-31.35 84.19-31.93 84.79-32.5 85.64-32.5ZM132.04-26.3L132.04-26.3Q132.84-26.3 133.42-25.75 133.99-25.2 133.99-24.3L133.99-24.3Q133.99-24.1 133.97-23.88 133.94-23.65 133.84-23.45L133.84-23.45 126.14-1.3Q125.89-0.65 125.32-0.3 124.74 0.05 124.09 0L124.09 0Q122.94-0.05 122.34-1.3L122.34-1.3 116.04-17.1 117.04-16.95 111.34-1.3Q110.79-0.05 109.59 0L109.59 0Q108.94 0.05 108.34-0.3 107.74-0.65 107.54-1.3L107.54-1.3 99.69-23.45Q99.54-23.9 99.54-24.3L99.54-24.3Q99.54-25.1 100.09-25.7 100.64-26.3 101.59-26.3L101.59-26.3Q102.19-26.3 102.69-26 103.19-25.7 103.39-25.05L103.39-25.05 110.14-5.35 109.09-5.4 114.94-20.4Q115.44-21.65 116.79-21.65L116.79-21.65Q117.49-21.65 117.92-21.33 118.34-21 118.54-20.4L118.54-20.4 124.64-5.4 123.39-5.3 130.14-25.05Q130.59-26.3 132.04-26.3ZM160.64-26.1L160.64-26.1Q161.54-26.1 162.09-25.53 162.64-24.95 162.64-24.1L162.64-24.1 162.64-2.05Q162.64-1.2 162.06-0.6 161.49 0 160.64 0L160.64 0Q159.79 0 159.21-0.6 158.64-1.2 158.64-2.05L158.64-2.05 158.64-6.8 159.59-6.9Q159.59-5.8 158.84-4.5 158.09-3.2 156.79-2.08 155.49-0.95 153.74-0.23 151.99 0.5 149.94 0.5L149.94 0.5Q146.54 0.5 143.81-1.28 141.09-3.05 139.54-6.1 137.99-9.15 137.99-13.05L137.99-13.05Q137.99-17 139.56-20.03 141.14-23.05 143.81-24.78 146.49-26.5 149.84-26.5L149.84-26.5Q151.99-26.5 153.84-25.8 155.69-25.1 157.06-23.9 158.44-22.7 159.19-21.25 159.94-19.8 159.94-18.35L159.94-18.35 158.64-18.65 158.64-24.1Q158.64-24.95 159.21-25.53 159.79-26.1 160.64-26.1ZM150.34-3.2L150.34-3.2Q152.84-3.2 154.76-4.5 156.69-5.8 157.79-8.03 158.89-10.25 158.89-13.05L158.89-13.05Q158.89-15.8 157.79-18.03 156.69-20.25 154.76-21.53 152.84-22.8 150.34-22.8L150.34-22.8Q147.89-22.8 145.96-21.55 144.04-20.3 142.94-18.1 141.84-15.9 141.84-13.05L141.84-13.05Q141.84-10.25 142.94-8.03 144.04-5.8 145.96-4.5 147.89-3.2 150.34-3.2ZM172.04 0L172.04 0Q171.19 0 170.61-0.6 170.04-1.2 170.04-2.05L170.04-2.05 170.04-23.85Q170.04-24.7 170.61-25.28 171.19-25.85 172.04-25.85L172.04-25.85Q172.94-25.85 173.49-25.28 174.04-24.7 174.04-23.85L174.04-23.85 174.04-17.25 173.44-18.3Q173.74-19.85 174.51-21.33 175.29-22.8 176.49-23.98 177.69-25.15 179.24-25.83 180.79-26.5 182.64-26.5L182.64-26.5Q183.74-26.5 184.66-25.98 185.59-25.45 185.59-24.5L185.59-24.5Q185.59-23.45 185.04-22.95 184.49-22.45 183.79-22.45L183.79-22.45Q183.14-22.45 182.54-22.73 181.94-23 181.04-23L181.04-23Q179.79-23 178.56-22.33 177.34-21.65 176.31-20.4 175.29-19.15 174.66-17.57 174.04-16 174.04-14.2L174.04-14.2 174.04-2.05Q174.04-1.2 173.46-0.6 172.89 0 172.04 0ZM200.68 0.5L200.68 0.5Q196.68 0.5 193.68-1.2 190.68-2.9 189.03-5.88 187.38-8.85 187.38-12.75L187.38-12.75Q187.38-17.1 189.11-20.18 190.83-23.25 193.58-24.88 196.33-26.5 199.43-26.5L199.43-26.5Q201.78-26.5 203.91-25.65 206.03-24.8 207.71-23.18 209.38-21.55 210.38-19.28 211.38-17 211.43-14.2L211.43-14.2Q211.38-13.4 210.78-12.85 210.18-12.3 209.38-12.3L209.38-12.3 189.63-12.3 188.73-15.75 207.98-15.75 207.18-15.05 207.18-16.15Q207.03-18.2 205.86-19.68 204.68-21.15 202.98-21.95 201.28-22.75 199.43-22.75L199.43-22.75Q197.93-22.75 196.46-22.23 194.98-21.7 193.81-20.53 192.63-19.35 191.93-17.5 191.23-15.65 191.23-13.05L191.23-13.05Q191.23-10.15 192.41-7.95 193.58-5.75 195.68-4.48 197.78-3.2 200.53-3.2L200.53-3.2Q202.33-3.2 203.63-3.65 204.93-4.1 205.86-4.78 206.78-5.45 207.43-6.15L207.43-6.15Q208.08-6.6 208.73-6.6L208.73-6.6Q209.43-6.6 209.93-6.1 210.43-5.6 210.43-4.9L210.43-4.9Q210.43-4.05 209.63-3.4L209.63-3.4Q208.18-1.85 205.81-0.68 203.43 0.5 200.68 0.5ZM233.63-35L246.13-35Q249.78-35 252.55-33.63 255.33-32.25 257.18-29.8 259.03-27.35 259.95-24.18 260.88-21 260.88-17.5L260.88-17.5Q260.88-12.7 259.23-8.72 257.58-4.75 254.33-2.38 251.08 0 246.13 0L246.13 0 233.63 0Q232.78 0 232.2-0.6 231.63-1.2 231.63-2.05L231.63-2.05 231.63-33Q231.63-33.85 232.2-34.43 232.78-35 233.63-35L233.63-35ZM235.48-3.9L245.63-3.9Q249.48-3.9 251.9-5.75 254.33-7.6 255.45-10.7 256.58-13.8 256.58-17.5L256.58-17.5Q256.58-20.2 255.95-22.68 255.33-25.15 254-27.05 252.68-28.95 250.6-30.05 248.53-31.15 245.63-31.15L245.63-31.15 235.38-31.15 235.78-31.55 235.78-3.4 235.48-3.9ZM278.93 0.5L278.93 0.5Q274.93 0.5 271.93-1.2 268.93-2.9 267.28-5.88 265.63-8.85 265.63-12.75L265.63-12.75Q265.63-17.1 267.35-20.18 269.08-23.25 271.83-24.88 274.58-26.5 277.68-26.5L277.68-26.5Q280.03-26.5 282.15-25.65 284.28-24.8 285.95-23.18 287.63-21.55 288.63-19.28 289.63-17 289.68-14.2L289.68-14.2Q289.63-13.4 289.03-12.85 288.43-12.3 287.63-12.3L287.63-12.3 267.88-12.3 266.98-15.75 286.23-15.75 285.43-15.05 285.43-16.15Q285.28-18.2 284.1-19.68 282.93-21.15 281.23-21.95 279.53-22.75 277.68-22.75L277.68-22.75Q276.18-22.75 274.7-22.23 273.23-21.7 272.05-20.53 270.88-19.35 270.18-17.5 269.48-15.65 269.48-13.05L269.48-13.05Q269.48-10.15 270.65-7.95 271.83-5.75 273.93-4.48 276.03-3.2 278.78-3.2L278.78-3.2Q280.58-3.2 281.88-3.65 283.18-4.1 284.1-4.78 285.03-5.45 285.68-6.15L285.68-6.15Q286.33-6.6 286.98-6.6L286.98-6.6Q287.68-6.6 288.18-6.1 288.68-5.6 288.68-4.9L288.68-4.9Q288.68-4.05 287.88-3.4L287.88-3.4Q286.43-1.85 284.05-0.68 281.68 0.5 278.93 0.5ZM295.17-26.3L295.17-26.3Q295.77-26.3 296.32-25.98 296.87-25.65 297.12-25.05L297.12-25.05 305.42-5.55 304.62-5.15 313.07-25Q313.62-26.35 314.92-26.3L314.92-26.3Q315.67-26.3 316.22-25.8 316.77-25.3 316.77-24.55L316.77-24.55Q316.77-24.25 316.7-23.98 316.62-23.7 316.52-23.5L316.52-23.5 306.87-1.3Q306.32-0.05 305.12 0L305.12 0Q304.47 0.05 303.9-0.28 303.32-0.6 303.07-1.3L303.07-1.3 293.42-23.45Q293.32-23.65 293.25-23.9 293.17-24.15 293.17-24.5L293.17-24.5Q293.17-25.15 293.7-25.73 294.22-26.3 295.17-26.3ZM333.62 0.5L333.62 0.5Q329.62 0.5 326.62-1.2 323.62-2.9 321.97-5.88 320.32-8.85 320.32-12.75L320.32-12.75Q320.32-17.1 322.05-20.18 323.77-23.25 326.52-24.88 329.27-26.5 332.37-26.5L332.37-26.5Q334.72-26.5 336.85-25.65 338.97-24.8 340.65-23.18 342.32-21.55 343.32-19.28 344.32-17 344.37-14.2L344.37-14.2Q344.32-13.4 343.72-12.85 343.12-12.3 342.32-12.3L342.32-12.3 322.57-12.3 321.67-15.75 340.92-15.75 340.12-15.05 340.12-16.15Q339.97-18.2 338.8-19.68 337.62-21.15 335.92-21.95 334.22-22.75 332.37-22.75L332.37-22.75Q330.87-22.75 329.4-22.23 327.92-21.7 326.75-20.53 325.57-19.35 324.87-17.5 324.17-15.65 324.17-13.05L324.17-13.05Q324.17-10.15 325.35-7.95 326.52-5.75 328.62-4.48 330.72-3.2 333.47-3.2L333.47-3.2Q335.27-3.2 336.57-3.65 337.87-4.1 338.8-4.78 339.72-5.45 340.37-6.15L340.37-6.15Q341.02-6.6 341.67-6.6L341.67-6.6Q342.37-6.6 342.87-6.1 343.37-5.6 343.37-4.9L343.37-4.9Q343.37-4.05 342.57-3.4L342.57-3.4Q341.12-1.85 338.75-0.68 336.37 0.5 333.62 0.5ZM354.52-35L354.52-2.05Q354.52-1.2 353.92-0.6 353.32 0 352.47 0L352.47 0Q351.62 0 351.07-0.6 350.52-1.2 350.52-2.05L350.52-2.05 350.52-35Q350.52-35.85 351.09-36.43 351.67-37 352.52-37L352.52-37Q353.42-37 353.97-36.43 354.52-35.85 354.52-35L354.52-35ZM386.06-13L386.06-13Q386.06-9.1 384.37-6.05 382.67-3 379.74-1.25 376.81 0.5 373.12 0.5L373.12 0.5Q369.46 0.5 366.54-1.25 363.62-3 361.89-6.05 360.17-9.1 360.17-13L360.17-13Q360.17-16.9 361.89-19.95 363.62-23 366.54-24.75 369.46-26.5 373.12-26.5L373.12-26.5Q376.81-26.5 379.74-24.75 382.67-23 384.37-19.95 386.06-16.9 386.06-13ZM382.06-13L382.06-13Q382.06-15.9 380.89-18.1 379.71-20.3 377.69-21.55 375.67-22.8 373.12-22.8L373.12-22.8Q370.62-22.8 368.56-21.55 366.51-20.3 365.34-18.1 364.17-15.9 364.17-13L364.17-13Q364.17-10.15 365.34-7.95 366.51-5.75 368.56-4.48 370.62-3.2 373.12-3.2L373.12-3.2Q375.67-3.2 377.69-4.48 379.71-5.75 380.89-7.95 382.06-10.15 382.06-13ZM404.61-26.25L404.61-26.25Q408.01-26.25 410.71-24.55 413.41-22.85 414.99-19.85 416.56-16.85 416.56-12.95L416.56-12.95Q416.56-9.1 414.99-6.08 413.41-3.05 410.74-1.33 408.06 0.4 404.71 0.4L404.71 0.4Q402.86 0.4 401.24-0.18 399.61-0.75 398.29-1.68 396.96-2.6 396.06-3.78 395.16-4.95 394.76-6.1L394.76-6.1 395.86-6.8 395.86 7.95Q395.86 8.8 395.31 9.4 394.76 10 393.86 10L393.86 10Q393.01 10 392.44 9.43 391.86 8.85 391.86 7.95L391.86 7.95 391.86-24Q391.86-24.85 392.44-25.43 393.01-26 393.86-26L393.86-26Q394.76-26 395.31-25.43 395.86-24.85 395.86-24L395.86-24 395.86-19.55 395.11-19.95Q395.46-21.2 396.34-22.35 397.21-23.5 398.49-24.38 399.76-25.25 401.34-25.75 402.91-26.25 404.61-26.25ZM404.16-22.55L404.16-22.55Q401.66-22.55 399.74-21.3 397.81-20.05 396.74-17.9 395.66-15.75 395.66-12.95L395.66-12.95Q395.66-10.2 396.74-8 397.81-5.8 399.74-4.55 401.66-3.3 404.16-3.3L404.16-3.3Q406.66-3.3 408.56-4.55 410.46-5.8 411.56-8 412.66-10.2 412.66-12.95L412.66-12.95Q412.66-15.75 411.56-17.9 410.46-20.05 408.56-21.3 406.66-22.55 404.16-22.55ZM434.01 0.5L434.01 0.5Q430.01 0.5 427.01-1.2 424.01-2.9 422.36-5.88 420.71-8.85 420.71-12.75L420.71-12.75Q420.71-17.1 422.44-20.18 424.16-23.25 426.91-24.88 429.66-26.5 432.76-26.5L432.76-26.5Q435.11-26.5 437.24-25.65 439.36-24.8 441.04-23.18 442.71-21.55 443.71-19.28 444.71-17 444.76-14.2L444.76-14.2Q444.71-13.4 444.11-12.85 443.51-12.3 442.71-12.3L442.71-12.3 422.96-12.3 422.06-15.75 441.31-15.75 440.51-15.05 440.51-16.15Q440.36-18.2 439.19-19.68 438.01-21.15 436.31-21.95 434.61-22.75 432.76-22.75L432.76-22.75Q431.26-22.75 429.79-22.23 428.31-21.7 427.13-20.53 425.96-19.35 425.26-17.5 424.56-15.65 424.56-13.05L424.56-13.05Q424.56-10.15 425.74-7.95 426.91-5.75 429.01-4.48 431.11-3.2 433.86-3.2L433.86-3.2Q435.66-3.2 436.96-3.65 438.26-4.1 439.19-4.78 440.11-5.45 440.76-6.15L440.76-6.15Q441.41-6.6 442.06-6.6L442.06-6.6Q442.76-6.6 443.26-6.1 443.76-5.6 443.76-4.9L443.76-4.9Q443.76-4.05 442.96-3.4L442.96-3.4Q441.51-1.85 439.13-0.68 436.76 0.5 434.01 0.5ZM452.51 0L452.51 0Q451.66 0 451.08-0.6 450.51-1.2 450.51-2.05L450.51-2.05 450.51-23.85Q450.51-24.7 451.08-25.28 451.66-25.85 452.51-25.85L452.51-25.85Q453.41-25.85 453.96-25.28 454.51-24.7 454.51-23.85L454.51-23.85 454.51-17.25 453.91-18.3Q454.21-19.85 454.98-21.33 455.76-22.8 456.96-23.98 458.16-25.15 459.71-25.83 461.26-26.5 463.11-26.5L463.11-26.5Q464.21-26.5 465.13-25.98 466.06-25.45 466.06-24.5L466.06-24.5Q466.06-23.45 465.51-22.95 464.96-22.45 464.26-22.45L464.26-22.45Q463.61-22.45 463.01-22.73 462.41-23 461.51-23L461.51-23Q460.26-23 459.03-22.33 457.81-21.65 456.78-20.4 455.76-19.15 455.13-17.57 454.51-16 454.51-14.2L454.51-14.2 454.51-2.05Q454.51-1.2 453.93-0.6 453.36 0 452.51 0Z" opacity="1" transform="matrix(1,0,0,1,0,0)" fill="#ffffff" class="slogan-text-1" data-fill-palette-color="secondary" id="text-1"></path></svg></g></svg></g></svg></g></svg></g><g></g></svg></g><defs></defs></svg><rect width="395.52" height="117.292827023871" fill="none" stroke="none" visibility="hidden"></rect></g></svg></g></svg>